<svg width="64" height="64" viewBox="0 0 64 64" fill="none" xmlns="http://www.w3.org/2000/svg">
<path d="M57.9613 42.5063L51.6129 41.4482V39.1401C53.4998 38.0449 54.9109 36.226 55.4704 34.0634H55.7419C58.0191 34.0634 59.8709 32.2116 59.8709 29.9344C59.8709 28.0351 58.5755 26.4474 56.8258 25.9685C58.6456 24.8887 59.8709 22.9099 59.8709 20.6451C59.8709 17.2294 57.0931 14.4516 53.6774 14.4516C52.512 14.4516 51.4632 14.9409 50.7117 15.7202C49.4245 14.8954 47.9432 14.4516 46.4103 14.4516H45.0126C42.4072 14.4516 39.9845 15.7109 38.4887 17.8322L37.6516 18.3896C36.0516 19.456 35.0967 21.2407 35.0967 23.1628C35.0967 23.6294 35.1546 24.097 35.2681 24.5543L35.9824 27.4105C35.4364 28.1114 35.0967 28.9806 35.0967 29.9354C35.0967 32.2126 36.9486 34.0645 39.2258 34.0645H39.4973C40.0567 36.227 41.4678 38.0449 43.3548 39.1411V41.4492L37.0064 42.5063C33.5071 43.0895 30.9677 46.0861 30.9677 49.634V63.9999H64V49.634C64 46.0861 61.4606 43.0895 57.9613 42.5063ZM43.938 43.4446L46.178 46.4319L44.13 48.992L43.5809 43.5034L43.938 43.4446ZM47.298 53.6774H47.6707L49.3223 61.9354H45.6464L47.298 53.6774ZM47.8173 51.6129H47.1504L46.3256 49.5514L47.4838 48.1032L48.642 49.5504L47.8173 51.6129ZM48.7896 46.4309L51.0296 43.4436L51.3868 43.5034L50.8376 48.992L48.7896 46.4309ZM57.8064 29.9354C57.8064 31.074 56.8805 32 55.7419 32V27.8709C56.8805 27.8709 57.8064 28.7969 57.8064 29.9354ZM38.7964 20.1073L39.97 19.3249L40.0846 19.1525C41.185 17.5009 43.0276 16.5151 45.0116 16.5151H46.4093C47.5829 16.5151 48.7184 16.8588 49.6949 17.5091L49.7042 17.5153C49.6134 17.858 49.5484 18.21 49.5484 18.5806C49.5484 20.8578 51.4002 22.7096 53.6774 22.7096H55.7419V20.6451H53.6774C52.5388 20.6451 51.6129 19.7192 51.6129 18.5806C51.6129 17.442 52.5388 16.5161 53.6774 16.5161C55.9545 16.5161 57.8064 18.368 57.8064 20.6451C57.8064 22.9223 55.9545 24.7741 53.6774 24.7741H42.3226C41.7527 24.7741 41.2903 24.3107 41.2903 23.7419C41.2903 23.1731 41.7527 22.7096 42.3226 22.7096H43.3548V20.6451H42.3226C40.6152 20.6451 39.2258 22.0345 39.2258 23.7419V25.8064C38.7148 25.8064 38.2296 25.9117 37.7775 26.082L37.2707 24.0547C37.1984 23.7625 37.1613 23.4621 37.1613 23.1628C37.1613 21.9323 37.7724 20.7896 38.7964 20.1073ZM37.1613 29.9354C37.1613 28.7969 38.0872 27.8709 39.2258 27.8709V32C38.0872 32 37.1613 31.074 37.1613 29.9354ZM41.2903 32V26.6487C41.6144 26.7643 41.9592 26.8387 42.3226 26.8387H53.6774V32C53.6774 35.4157 50.8996 38.1935 47.4838 38.1935C44.0681 38.1935 41.2903 35.4157 41.2903 32ZM47.4838 40.258C48.1982 40.258 48.8867 40.1579 49.5484 39.9865V41.9798L47.4838 44.7318L45.4193 41.9798V39.9865C46.081 40.1579 46.7695 40.258 47.4838 40.258ZM33.0322 49.634C33.0322 47.1009 34.8459 44.9589 37.345 44.5419L41.5401 43.843L42.5796 54.2338L44.8433 51.4043L45.3791 52.7442L43.5406 61.9354H39.2258V50.5806H37.1613V61.9354H33.0322V49.634ZM61.9355 61.9354H57.8064V50.5806H55.7419V61.9354H51.4271L49.5886 52.7432L50.1244 51.4033L52.3881 54.2327L53.4276 43.842L57.6227 44.5409C60.1218 44.9589 61.9355 47.1009 61.9355 49.634V61.9354Z" fill="#373737"/>
<path d="M50.5806 33.0322H48.5161C48.5161 33.602 48.0537 34.0645 47.4839 34.0645C46.9141 34.0645 46.4516 33.602 46.4516 33.0322H44.3871C44.3871 34.7396 45.7765 36.129 47.4839 36.129C49.1912 36.129 50.5806 34.7396 50.5806 33.0322Z" fill="#373737"/>
<path d="M15.4839 16.5161H13.4194C8.29626 16.5161 4.12903 20.6844 4.12903 25.8065V29.4483C4.12903 32.3087 3.4529 35.1732 2.1729 37.7321C0.752516 40.576 0 43.7595 0 46.9389V47.4839C0 49.312 0.801032 50.9523 2.06452 52.0878V64H24.7742V61.4039C24.7742 55.6305 22.5693 50.2049 18.5806 46.0552V43.3549H20.0072C20.5832 43.3549 21.1613 43.2186 21.6774 42.9605C22.9502 42.3236 23.7419 41.0436 23.7419 39.6201V36.8733L26.8387 35.841V35.0968C26.8387 32.0857 25.0715 26.5507 24.7639 25.6124C24.6596 20.5801 20.5409 16.5161 15.4839 16.5161ZM2.06452 46.9389C2.06452 44.0785 2.74064 41.214 4.02064 38.656C5.44103 35.8111 6.19355 32.6276 6.19355 29.4483V25.8065C6.19355 21.822 9.43587 18.5807 13.4194 18.5807H15.4839C19.1164 18.5807 22.1234 21.2779 22.6271 24.7742H15.6325C13.8601 24.7742 12.3355 26.0976 12.0836 27.8514L11.489 32.0176C9.67845 32.1941 8.25806 33.727 8.25806 35.584C8.25806 36.9497 9.01677 38.1791 10.24 38.7902L10.3226 38.8315V44.3871V46.4516V47.4839C10.3226 49.761 8.47071 51.6129 6.19355 51.6129C3.91639 51.6129 2.06452 49.761 2.06452 47.4839V46.9389ZM4.12903 59.871H10.3226V61.9355H4.12903V59.871ZM22.7097 61.9355H12.3871V53.6774H10.3226V57.8065H4.12903V53.3161C4.77626 53.5453 5.4689 53.6774 6.19355 53.6774C9.60929 53.6774 12.3871 50.8996 12.3871 47.4839H17.1148C20.7257 51.2465 22.7097 56.1734 22.7097 61.4039V61.9355ZM21.6774 35.3848V39.6201C21.6774 40.257 21.3234 40.8299 20.7535 41.1138C20.5234 41.2294 20.2653 41.2903 20.0072 41.2903H14.4516V43.3549H16.5161V45.4194H12.3871V44.3871V37.5556L11.1618 36.9435C10.6446 36.6844 10.3226 36.1631 10.3226 35.584C10.3226 34.7458 11.0039 34.0645 11.8421 34.0645H13.2831L14.1295 28.1435C14.2348 27.3992 14.8821 26.8387 15.6335 26.8387H22.9894C23.4632 28.3551 24.5337 31.9783 24.7401 34.3639L21.6774 35.3848Z" fill="#373737"/>
<path d="M19.6129 32C20.183 32 20.6452 31.5379 20.6452 30.9678C20.6452 30.3977 20.183 29.9355 19.6129 29.9355C19.0428 29.9355 18.5806 30.3977 18.5806 30.9678C18.5806 31.5379 19.0428 32 19.6129 32Z" fill="#373737"/>
<path d="M20.6451 4.12909H35.0968V6.19361H20.6451V4.12909Z" fill="#373737"/>
<path d="M20.6451 8.25809H30.9677V10.3226H20.6451V8.25809Z" fill="#373737"/>
<path d="M33.0322 8.25809H35.0967V10.3226H33.0322V8.25809Z" fill="#373737"/>
<path d="M35.0968 16.0888V14.4516H35.2681C37.4503 14.4516 39.2258 12.6761 39.2258 10.4939V4.12903C39.2258 1.85187 37.374 0 35.0968 0H20.6452C18.368 0 16.5161 1.85187 16.5161 4.12903V10.4939C16.5161 12.6761 18.2916 14.4516 20.4738 14.4516H27.4436L30.8418 17.8498C31.3053 18.3143 31.9474 18.5806 32.6049 18.5806C33.9789 18.5806 35.0968 17.4627 35.0968 16.0888ZM32.3025 16.3912L28.2983 12.3871H20.4738C19.4292 12.3871 18.5807 11.5375 18.5807 10.4939V4.12903C18.5807 2.99045 19.5066 2.06452 20.6452 2.06452H35.0968C36.2354 2.06452 37.1613 2.99045 37.1613 4.12903V10.4939C37.1613 11.5375 36.3128 12.3871 35.2681 12.3871H33.0323V16.0888C33.0323 16.4366 32.5481 16.6379 32.3025 16.3912Z" fill="#373737"/>
</svg>
