<svg width="46" height="46" viewBox="0 0 46 46" fill="none" xmlns="http://www.w3.org/2000/svg">
<path d="M44.4667 29.1334V30.1334H45.4667V29.1334H44.4667ZM1.53333 7.66675V6.66675H0.533325V7.66675H1.53333ZM1.53333 38.3334H0.533325V39.3334H1.53333V38.3334ZM25.0667 29.1334C25.0667 34.7667 29.6334 39.3334 35.2667 39.3334V37.3334C30.7379 37.3334 27.0667 33.6621 27.0667 29.1334H25.0667ZM35.2667 18.9334C29.6334 18.9334 25.0667 23.5001 25.0667 29.1334H27.0667C27.0667 24.6047 30.7379 20.9334 35.2667 20.9334V18.9334ZM45.4667 29.1334C45.4667 23.5001 40.9 18.9334 35.2667 18.9334V20.9334C39.7954 20.9334 43.4667 24.6047 43.4667 29.1334H45.4667ZM41.9141 33.9357C40.4226 35.9962 38.0008 37.3334 35.2667 37.3334V39.3334C38.6694 39.3334 41.6828 37.6662 43.5342 35.1085L41.9141 33.9357ZM1.53333 8.66675H9.19999V6.66675H1.53333V8.66675ZM9.19999 22.0001H1.53333V24.0001H9.19999V22.0001ZM2.53333 23.0001V7.66675H0.533325V23.0001H2.53333ZM15.8667 15.3334C15.8667 19.0153 12.8819 22.0001 9.19999 22.0001V24.0001C13.9865 24.0001 17.8667 20.1199 17.8667 15.3334H15.8667ZM9.19999 8.66675C12.8819 8.66675 15.8667 11.6515 15.8667 15.3334H17.8667C17.8667 10.5469 13.9865 6.66675 9.19999 6.66675V8.66675ZM1.53333 24.0001H12.2667V22.0001H1.53333V24.0001ZM12.2667 37.3334H1.53333V39.3334H12.2667V37.3334ZM2.53333 38.3334V23.0001H0.533325V38.3334H2.53333ZM18.9333 30.6667C18.9333 34.3486 15.9486 37.3334 12.2667 37.3334V39.3334C17.0531 39.3334 20.9333 35.4532 20.9333 30.6667H18.9333ZM12.2667 24.0001C15.9486 24.0001 18.9333 26.9848 18.9333 30.6667H20.9333C20.9333 25.8803 17.0531 22.0001 12.2667 22.0001V24.0001ZM26.0667 30.1334H44.4667V28.1334H26.0667V30.1334ZM27.6 11.7334H42.9333V9.73341H27.6V11.7334Z" fill="#DCD0C0"/>
</svg>
