<svg width="46" height="35" viewBox="0 0 46 35" fill="none" xmlns="http://www.w3.org/2000/svg">
<path d="M46 5.68221V4.95636C46 2.22338 43.7765 0 41.0436 0H4.95636C2.22338 0 0 2.22338 0 4.95636V5.68221V5.68751V29.4958C0 32.2286 2.22338 34.4519 4.95636 34.4519H41.0439C43.7767 34.4519 46 32.2286 46 29.4958V5.68751C46 5.68581 46 5.68401 46 5.68221ZM4.95636 2.69533H41.0436C42.2903 2.69533 43.3047 3.70959 43.3047 4.95636V4.95699L25.2553 16.9899C24.0539 17.7908 21.9463 17.7907 20.7451 16.9899L2.69533 4.9569V4.95627C2.69533 3.70959 3.70959 2.69533 4.95636 2.69533ZM41.0439 31.7566H4.95636C3.70959 31.7566 2.69533 30.7424 2.69533 29.4958V8.19624L19.25 19.2326C20.3015 19.9336 21.6505 20.284 23.0001 20.284C24.3493 20.284 25.6989 19.9335 26.7504 19.2326L43.3048 8.19624V29.4958C43.3047 30.7424 42.2905 31.7566 41.0439 31.7566Z" fill="#DCD0C0"/>
</svg>
