<svg width="64" height="64" viewBox="0 0 64 64" fill="none" xmlns="http://www.w3.org/2000/svg">
<path d="M57.7992 42.5404C59.169 39.1959 59.871 35.6573 59.871 32C59.871 17.8354 49.0643 5.84981 35.0968 4.29935V0L29.4276 4.25187C15.2165 5.55664 4.12903 17.6815 4.12903 32C4.12903 33.1572 4.21574 34.3174 4.35819 35.4622C1.71045 37.5432 0 40.7659 0 44.3871C0 48.7886 2.52284 52.6049 6.19355 54.4888V58.8387C6.19355 60.5461 7.58297 61.9355 9.29032 61.9355H13.4194C15.1267 61.9355 16.5161 60.5461 16.5161 58.8387V55.1525C21.1045 58.2307 26.4237 59.871 32 59.871H43.8926C45.9768 62.3907 49.1262 64 52.6452 64C58.9058 64 64 58.9058 64 52.6452C64 48.2405 61.4741 44.4232 57.7992 42.5404ZM33.9871 6.2689C47.3435 7.28465 57.8064 18.5879 57.8064 32C57.8064 35.3899 57.1551 38.6694 55.8854 41.7672C54.8583 41.4606 53.7714 41.2903 52.6452 41.2903C52.2756 41.2903 51.9102 41.311 51.5499 41.3461C52.9394 38.4413 53.6774 35.2537 53.6774 32C53.6774 20.8072 45.2893 11.5334 34.1667 10.4299L33.0323 10.3174V12.3871L27.5272 8.25806L33.0323 4.12903V6.19561L33.9871 6.2689ZM41.343 51.6129H32C28.3861 51.6129 24.8929 50.6219 21.8323 48.7597C22.3959 47.4126 22.7097 45.9365 22.7097 44.3871C22.7097 44.0382 22.688 43.6955 22.657 43.3548H43.3548V22.7097H37.1613V41.2903H35.0968V26.8387H28.9032V41.2903H26.8387V30.9677H20.6452V37.8787C18.785 35.232 15.8307 33.4101 12.4408 33.087C12.4212 32.7236 12.3871 32.3613 12.3871 32C12.3871 21.9417 19.839 13.6434 29.7765 12.5254L35.0968 16.5161V12.6286C44.5894 14.1223 51.6129 22.2575 51.6129 32C51.6129 35.5086 50.6715 38.9337 48.9032 41.9375C44.7897 43.3796 41.7497 47.1174 41.343 51.6129ZM22.7097 41.2903V33.0323H24.7742V41.2903H22.7097ZM33.0323 41.2903H30.9677V28.9032H33.0323V41.2903ZM39.2258 41.2903V24.7742H41.2903V41.2903H39.2258ZM6.19355 32C6.19355 20.0423 14.5455 9.73832 25.8364 6.94503L24.0857 8.25806L27.4828 10.8067C17.5463 12.8877 10.3226 21.5907 10.3226 32C10.3226 32.3592 10.3577 32.7205 10.3763 33.0818C8.92077 33.2067 7.54684 33.6103 6.29987 34.2348C6.23587 33.4916 6.19355 32.7453 6.19355 32ZM2.06452 44.3871C2.06452 39.265 6.23277 35.0968 11.3548 35.0968C16.4769 35.0968 20.6452 39.265 20.6452 44.3871C20.6452 48.4222 18.0542 51.8555 14.4516 53.1355V46.2617C14.7757 46.3773 15.1205 46.4516 15.4839 46.4516C17.1912 46.4516 18.5806 45.0622 18.5806 43.3548C18.5806 41.6475 17.1912 40.2581 15.4839 40.2581C14.1399 40.2581 13.0044 41.1241 12.577 42.3226H10.1316C9.70529 41.1241 8.56981 40.2581 7.22581 40.2581C5.51845 40.2581 4.12903 41.6475 4.12903 43.3548C4.12903 45.0622 5.51845 46.4516 7.22581 46.4516C7.58916 46.4516 7.93394 46.3773 8.25806 46.2617V53.1355C4.65548 51.8555 2.06452 48.4222 2.06452 44.3871ZM10.3226 44.3871H12.3871V53.6165C12.0475 53.6547 11.7037 53.6774 11.3548 53.6774C11.0059 53.6774 10.6622 53.6547 10.3226 53.6165V44.3871ZM14.4516 43.3548C14.4516 42.7861 14.9151 42.3226 15.4839 42.3226C16.0526 42.3226 16.5161 42.7861 16.5161 43.3548C16.5161 43.9236 16.0526 44.3871 15.4839 44.3871C14.9151 44.3871 14.4516 43.9236 14.4516 43.3548ZM8.25806 43.3548C8.25806 43.9236 7.79458 44.3871 7.22581 44.3871C6.65703 44.3871 6.19355 43.9236 6.19355 43.3548C6.19355 42.7861 6.65703 42.3226 7.22581 42.3226C7.79458 42.3226 8.25806 42.7861 8.25806 43.3548ZM13.4194 59.871H9.29032C8.72155 59.871 8.25806 59.4075 8.25806 58.8387V55.3022C9.24387 55.5819 10.2803 55.7419 11.3548 55.7419C12.4294 55.7419 13.4658 55.5819 14.4516 55.3022V58.8387C14.4516 59.4075 13.9881 59.871 13.4194 59.871ZM32 57.8064C26.9471 57.8064 22.1213 56.3551 17.9355 53.6227C19.0875 52.799 20.0805 51.7698 20.8578 50.5827C24.2188 52.6028 28.0444 53.6774 32 53.6774H41.343C41.4772 55.1535 41.8973 56.5461 42.5445 57.8064H32ZM47.5541 60.4067L47.8679 57.8942C48.1683 55.4901 50.2225 53.6774 52.6452 53.6774C55.0679 53.6774 57.1221 55.4901 57.4224 57.8942L57.7363 60.4067C56.2725 61.3708 54.5249 61.9355 52.6452 61.9355C50.7654 61.9355 49.0178 61.3708 47.5541 60.4067ZM50.5806 49.5484C50.5806 48.4098 51.5066 47.4839 52.6452 47.4839C53.7837 47.4839 54.7097 48.4098 54.7097 49.5484C54.7097 50.687 53.7837 51.6129 52.6452 51.6129C51.5066 51.6129 50.5806 50.687 50.5806 49.5484ZM59.6119 58.7706L59.4704 57.6392C59.1763 55.2805 57.6991 53.3203 55.6821 52.3231C56.3541 51.5881 56.7742 50.6199 56.7742 49.5484C56.7742 47.2712 54.9223 45.4194 52.6452 45.4194C50.368 45.4194 48.5161 47.2712 48.5161 49.5484C48.5161 50.6199 48.9363 51.5881 49.6072 52.3221C47.5902 53.3192 46.1141 55.2795 45.8188 57.6382L45.6774 58.7695C44.2374 57.1334 43.3548 54.9925 43.3548 52.6452C43.3548 47.5231 47.5231 43.3548 52.6452 43.3548C57.7672 43.3548 61.9355 47.5231 61.9355 52.6452C61.9355 54.9925 61.0529 57.1334 59.6119 58.7706Z" fill="#373737"/>
</svg>
