<svg width="60" height="60" viewBox="0 0 60 60" fill="none" xmlns="http://www.w3.org/2000/svg">
<path d="M29.9999 4.00049V38.0005M29.9999 38.0005V46.0005C29.9999 50.4188 26.4182 54.0005 21.9999 54.0005C17.5816 54.0005 13.9999 50.4188 13.9999 46.0005C13.9999 41.5822 17.5816 38.0005 21.9999 38.0005M29.9999 38.0005H21.9999M21.9999 38.0005C17.5816 38.0005 13.9999 34.4188 13.9999 30.0005C13.9999 25.5822 17.5816 22.0005 21.9999 22.0005M21.9999 22.0005H29.9999M21.9999 22.0005H37.9999M21.9999 22.0005C17.5816 22.0005 13.9999 18.4188 13.9999 14.0005C13.9999 9.58221 17.5816 6.00049 21.9999 6.00049H37.9999C42.4181 6.00049 45.9999 9.58221 45.9999 14.0005C45.9999 18.4188 42.4181 22.0005 37.9999 22.0005M37.9999 22.0005C42.4181 22.0005 45.9999 25.5822 45.9999 30.0005C45.9999 34.4188 42.4181 38.0005 37.9999 38.0005C33.5816 38.0005 29.9999 34.4188 29.9999 30.0005C29.9999 25.5822 33.5816 22.0005 37.9999 22.0005Z" stroke="#C0B283" stroke-width="2"/>
</svg>
