<svg width="60" height="72" viewBox="0 0 60 72" fill="none" xmlns="http://www.w3.org/2000/svg">
<path d="M30.0548 15.5131C19.8681 15.5131 11.5456 23.8356 11.5456 34.0223C11.5456 39.3487 13.8759 44.4754 17.8041 47.9375C20.7336 50.8671 20.4673 57.1256 20.4007 57.1921C20.4007 57.525 20.4673 57.7914 20.7336 58.0577C20.9334 58.2574 21.2663 58.3906 21.5326 58.3906H38.5105C38.8434 58.3906 39.1097 58.2574 39.3094 58.0577C39.5091 57.8579 39.6423 57.525 39.6423 57.1921C39.6423 57.1256 39.3094 50.8671 42.2389 47.9375C42.3055 47.871 42.3721 47.8044 42.4387 47.7378C46.3003 44.2091 48.564 39.2156 48.564 34.0223C48.564 23.8356 40.2415 15.5131 30.0548 15.5131ZM40.7076 46.2065C40.641 46.273 40.5079 46.4062 40.5079 46.4728C37.9112 49.2691 37.4452 53.8631 37.3786 56.0603H22.6644C22.5979 53.8631 22.1318 49.0694 19.3354 46.2065C15.8067 43.1438 13.7427 38.6829 13.7427 33.9558C13.7427 24.9675 20.9999 17.7103 29.9882 17.7103C38.9765 17.7103 46.2337 24.9675 46.2337 33.9558C46.2337 38.6829 44.2363 43.1438 40.7076 46.2065Z" fill="#373737"/>
<path d="M29.9881 20.2403C29.3889 20.2403 28.8563 20.7729 28.8563 21.3722C28.8563 21.9714 29.3889 22.504 29.9881 22.504C36.7127 22.504 42.1057 27.9636 42.1057 34.6216C42.1057 35.2208 42.6383 35.7534 43.2375 35.7534C43.8368 35.7534 44.3694 35.2208 44.3694 34.6216C44.436 26.6985 37.9777 20.2403 29.9881 20.2403Z" fill="#373737"/>
<path d="M37.3784 59.6556H22.5977C21.0664 59.6556 19.8014 60.9206 19.8014 62.452C19.8014 63.9833 21.0664 65.2483 22.5977 65.2483H37.3119C38.9098 65.1817 40.1748 63.9833 40.1748 62.452C40.1748 60.9206 38.9098 59.6556 37.3784 59.6556ZM37.3784 62.918H22.5977C22.3314 62.918 22.0651 62.7183 22.0651 62.3854C22.0651 62.0525 22.2648 61.8527 22.5977 61.8527H37.3119C37.5782 61.8527 37.8445 62.0525 37.8445 62.3854C37.8445 62.7183 37.6448 62.918 37.3784 62.918Z" fill="#373737"/>
<path d="M35.1813 66.3801H24.7949C23.2635 66.3801 21.9985 67.6451 21.9985 69.1765C21.9985 70.7078 23.2635 71.9728 24.7949 71.9728H35.1813C36.7127 71.9728 37.9777 70.7078 37.9777 69.1765C37.9777 67.5786 36.7127 66.3801 35.1813 66.3801ZM35.1813 69.6425H24.7949C24.5285 69.6425 24.2622 69.4428 24.2622 69.1099C24.2622 68.777 24.462 68.5773 24.7949 68.5773H35.1813C35.4476 68.5773 35.714 68.777 35.714 69.1099C35.714 69.4428 35.4476 69.6425 35.1813 69.6425Z" fill="#373737"/>
<path d="M29.9881 9.98699C30.6539 9.98699 31.12 9.45435 31.12 8.85513V1.13186C31.12 0.532639 30.5874 0 29.9881 0C29.3889 0 28.8563 0.532639 28.8563 1.13186V8.85513C28.8563 9.45435 29.3889 9.98699 29.9881 9.98699Z" fill="#373737"/>
<path d="M48.8303 5.72588C48.2977 5.3264 47.6319 5.52614 47.299 5.9922L43.0379 12.3839C42.6384 12.9165 42.7715 13.6489 43.3042 13.9818C43.5039 14.1149 43.7037 14.1815 43.9034 14.1815C44.3029 14.1815 44.6358 13.9818 44.8355 13.6489L49.0966 7.25722C49.4961 6.79116 49.363 6.05878 48.8303 5.72588Z" fill="#373737"/>
<path d="M16.4723 13.9152C16.6721 13.9152 16.8718 13.8486 17.0715 13.7155C17.6042 13.3826 17.7373 12.6502 17.4044 12.1175L13.2765 5.65929C12.9436 5.12665 12.2112 4.99349 11.6786 5.32639C11.1459 5.65929 11.0128 6.39167 11.3457 6.92431L15.4736 13.3826C15.7399 13.782 16.0728 13.9152 16.4723 13.9152Z" fill="#373737"/>
<path d="M8.41628 20.9727L1.69171 17.3108C1.15907 17.0445 0.426689 17.2442 0.160369 17.7769C-0.172531 18.3095 0.0272091 19.0419 0.626428 19.3082L7.351 22.9701C7.55074 23.0367 7.6839 23.1033 7.88364 23.1033C8.28312 23.1033 8.6826 22.9035 8.88234 22.504C9.14866 21.9714 8.94892 21.239 8.41628 20.9727Z" fill="#373737"/>
<path d="M59.8826 17.7769C59.6163 17.2442 58.8839 17.0445 58.3512 17.3108L51.5601 20.9727C51.0274 21.239 50.8277 21.9714 51.094 22.504C51.2938 22.9035 51.6932 23.1033 52.0927 23.1033C52.2925 23.1033 52.4922 23.0367 52.6254 22.9701L59.4165 19.3082C59.9491 19.0419 60.1489 18.3095 59.8826 17.7769Z" fill="#373737"/>
</svg>
