<svg width="60" height="60" viewBox="0 0 60 60" fill="none" xmlns="http://www.w3.org/2000/svg">
<path d="M27.1713 4.82782L27.8785 5.53493V5.53493L27.1713 4.82782ZM4.8282 27.171L4.12109 26.4639H4.12109L4.8282 27.171ZM4.8282 32.8278L5.53531 32.1207H5.5353L4.8282 32.8278ZM27.1713 55.171L26.4642 55.8781V55.8781L27.1713 55.171ZM32.8282 55.171L32.1211 54.4639L32.8282 55.171ZM55.1714 32.8278L55.8785 33.5349H55.8785L55.1714 32.8278ZM55.1714 27.171L54.4642 27.8781L55.1714 27.171ZM32.8282 4.82782L33.5353 4.12071V4.12071L32.8282 4.82782ZM26.4642 4.12072L4.12109 26.4639L5.5353 27.8781L27.8785 5.53493L26.4642 4.12072ZM4.12109 33.5349L26.4642 55.8781L27.8785 54.4639L5.53531 32.1207L4.12109 33.5349ZM33.5353 55.8781L55.8785 33.5349L54.4642 32.1207L32.1211 54.4639L33.5353 55.8781ZM55.8785 26.4639L33.5353 4.12071L32.1211 5.53493L54.4642 27.8781L55.8785 26.4639ZM55.8785 33.5349C57.8311 31.5823 57.8311 28.4165 55.8785 26.4639L54.4642 27.8781C55.6358 29.0497 55.6358 30.9491 54.4642 32.1207L55.8785 33.5349ZM26.4642 55.8781C28.4169 57.8307 31.5827 57.8307 33.5353 55.8781L32.1211 54.4639C30.9495 55.6354 29.05 55.6354 27.8785 54.4639L26.4642 55.8781ZM4.12109 26.4639C2.16847 28.4165 2.16847 31.5823 4.12109 33.5349L5.5353 32.1207C4.36373 30.9491 4.36373 29.0497 5.5353 27.8781L4.12109 26.4639ZM27.8785 5.53493C29.05 4.36336 30.9495 4.36336 32.1211 5.53493L33.5353 4.12071C31.5827 2.16809 28.4169 2.1681 26.4642 4.12072L27.8785 5.53493ZM21.2927 10.7065L25.2927 14.7065L26.7069 13.2923L22.7069 9.29229L21.2927 10.7065ZM29.9998 20.9994C28.3429 20.9994 26.9998 19.6563 26.9998 17.9994H24.9998C24.9998 20.7608 27.2383 22.9994 29.9998 22.9994V20.9994ZM32.9998 17.9994C32.9998 19.6563 31.6566 20.9994 29.9998 20.9994V22.9994C32.7612 22.9994 34.9998 20.7608 34.9998 17.9994H32.9998ZM29.9998 14.9994C31.6566 14.9994 32.9998 16.3425 32.9998 17.9994H34.9998C34.9998 15.238 32.7612 12.9994 29.9998 12.9994V14.9994ZM29.9998 12.9994C27.2383 12.9994 24.9998 15.238 24.9998 17.9994H26.9998C26.9998 16.3425 28.3429 14.9994 29.9998 14.9994V12.9994ZM33.2927 22.7065L39.2927 28.7065L40.7069 27.2923L34.7069 21.2923L33.2927 22.7065ZM41.9998 32.9994C40.3429 32.9994 38.9998 31.6563 38.9998 29.9994H36.9998C36.9998 32.7608 39.2383 34.9994 41.9998 34.9994V32.9994ZM44.9998 29.9994C44.9998 31.6563 43.6566 32.9994 41.9998 32.9994V34.9994C44.7612 34.9994 46.9998 32.7608 46.9998 29.9994H44.9998ZM41.9998 26.9994C43.6566 26.9994 44.9998 28.3425 44.9998 29.9994H46.9998C46.9998 27.238 44.7612 24.9994 41.9998 24.9994V26.9994ZM41.9998 24.9994C39.2383 24.9994 36.9998 27.238 36.9998 29.9994H38.9998C38.9998 28.3425 40.3429 26.9994 41.9998 26.9994V24.9994ZM28.9998 21.9994V37.9994H30.9998V21.9994H28.9998ZM29.9998 44.9994C28.3429 44.9994 26.9998 43.6563 26.9998 41.9994H24.9998C24.9998 44.7608 27.2383 46.9994 29.9998 46.9994V44.9994ZM32.9998 41.9994C32.9998 43.6563 31.6566 44.9994 29.9998 44.9994V46.9994C32.7612 46.9994 34.9998 44.7608 34.9998 41.9994H32.9998ZM29.9998 38.9994C31.6566 38.9994 32.9998 40.3425 32.9998 41.9994H34.9998C34.9998 39.238 32.7612 36.9994 29.9998 36.9994V38.9994ZM29.9998 36.9994C27.2383 36.9994 24.9998 39.238 24.9998 41.9994H26.9998C26.9998 40.3425 28.3429 38.9994 29.9998 38.9994V36.9994Z" fill="#C0B283"/>
</svg>
