<svg width="60" height="60" viewBox="0 0 60 60" fill="none" xmlns="http://www.w3.org/2000/svg">
<path d="M22.3004 48.9538C22.8272 48.7879 23.1197 48.2263 22.9538 47.6996C22.7879 47.1728 22.2263 46.8803 21.6996 47.0462L22.3004 48.9538ZM7.75394 39.0328L6.78672 38.7788L6.27884 40.7133L7.24606 40.9672L7.75394 39.0328ZM37 58V59H39V58H37ZM36.25 38.75L36.1431 37.7557C35.7597 37.7969 35.4341 38.055 35.3064 38.4189C35.1787 38.7828 35.2717 39.1877 35.5453 39.4595L36.25 38.75ZM50 23.65H51L51 23.6468L50 23.65ZM46.6675 15.625L45.7353 15.263C45.592 15.632 45.6799 16.0508 45.9594 16.3311L46.6675 15.625ZM46.4675 7.5575L47.3806 7.14972C47.2601 6.87988 47.0264 6.67716 46.7422 6.59597L46.4675 7.5575ZM37.7775 10.725L37.5253 11.6927C37.7964 11.7633 38.0847 11.717 38.3201 11.565L37.7775 10.725ZM22.2225 10.725L21.6801 11.5651C21.9154 11.717 22.2037 11.7633 22.4747 11.6927L22.2225 10.725ZM13.5325 7.5575L13.2575 6.59604C12.9735 6.67728 12.7399 6.87996 12.6194 7.14972L13.5325 7.5575ZM13.3325 15.625L14.0406 16.3312C14.3201 16.0508 14.408 15.632 14.2647 15.263L13.3325 15.625ZM10 23.715H11L11 23.7124L10 23.715ZM23.75 38.75L24.4559 39.4583C24.7273 39.1878 24.8203 38.786 24.6953 38.4238C24.5703 38.0616 24.2493 37.8026 23.8688 37.7571L23.75 38.75ZM22 44H23C23 43.9756 22.9991 43.9511 22.9973 43.9268L22 44ZM21 58V59H23V58H21ZM21.6996 47.0462C19.1542 47.8479 17.4003 47.8017 16.13 47.3824C14.8626 46.9641 13.9382 46.1296 13.1322 45.0788C12.7268 44.5504 12.3612 43.9804 11.9965 43.39C11.6406 42.8139 11.2716 42.1946 10.8942 41.638C10.151 40.542 9.20192 39.4129 7.75394 39.0328L7.24606 40.9672C7.94058 41.1496 8.53583 41.7236 9.2389 42.7604C9.58461 43.2703 9.9142 43.8247 10.2949 44.4411C10.6668 45.043 11.0757 45.684 11.5453 46.2962C12.4893 47.5267 13.7168 48.6921 15.5032 49.2817C17.2866 49.8702 19.4883 49.8396 22.3004 48.9538L21.6996 47.0462ZM39 43.75C39 42.4902 38.9407 41.4711 38.6353 40.5543C38.3183 39.6026 37.7679 38.8483 36.9547 38.0405L35.5453 39.4595C36.2296 40.1392 36.5542 40.6349 36.7378 41.1863C36.9331 41.7726 37 42.5098 37 43.75H39ZM36.3569 39.7443C39.9071 39.3627 43.5962 38.4803 46.396 36.0567C49.2393 33.5955 51 29.6952 51 23.65H49C49 29.2898 47.3744 32.5645 45.0871 34.5445C42.7563 36.5621 39.5704 37.3873 36.1431 37.7557L36.3569 39.7443ZM51 23.6468C50.9894 20.3735 49.6869 17.2368 47.3756 14.9189L45.9594 16.3311C47.8984 18.2756 48.9911 20.9072 49 23.6532L51 23.6468ZM47.5997 15.987C48.149 14.5726 48.4125 13.0633 48.3749 11.5464L46.3755 11.596C46.4065 12.8486 46.1889 14.095 45.7353 15.263L47.5997 15.987ZM48.3749 11.5464C48.3372 10.0296 47.9993 8.53519 47.3806 7.14972L45.5544 7.96527C46.0653 9.10936 46.3444 10.3434 46.3755 11.596L48.3749 11.5464ZM46.4675 7.5575C46.7422 6.59597 46.7413 6.5957 46.7403 6.59543C46.74 6.59534 46.739 6.59507 46.7384 6.59488C46.737 6.5945 46.7357 6.59412 46.7342 6.59373C46.7314 6.59295 46.7284 6.59213 46.7253 6.59128C46.719 6.58959 46.712 6.58776 46.7044 6.58584C46.6891 6.58198 46.6712 6.57772 46.6506 6.5732C46.6093 6.56417 46.5575 6.55417 46.4948 6.54453C46.3694 6.52525 46.2013 6.50754 45.9893 6.50188C45.5647 6.49054 44.9679 6.52762 44.1879 6.69426C42.6295 7.02721 40.345 7.87612 37.2349 9.88499L38.3201 11.565C41.275 9.65638 43.3355 8.92153 44.6058 8.65011C45.2402 8.51456 45.6788 8.4943 45.9359 8.50116C46.0647 8.5046 46.1491 8.51488 46.1909 8.52131C46.2119 8.52453 46.2223 8.52682 46.2225 8.52686C46.2226 8.52688 46.2202 8.52635 46.2152 8.52509C46.2127 8.52447 46.2096 8.52366 46.2059 8.52266C46.204 8.52215 46.202 8.5216 46.1998 8.52099C46.1987 8.52069 46.1976 8.52038 46.1964 8.52005C46.1958 8.51988 46.1949 8.51963 46.1946 8.51954C46.1937 8.51928 46.1928 8.51902 46.4675 7.5575ZM38.0297 9.75733C32.7645 8.38492 27.2355 8.38492 21.9703 9.75733L22.4747 11.6927C27.4091 10.4065 32.5909 10.4065 37.5253 11.6927L38.0297 9.75733ZM22.7649 9.88489C19.6537 7.8761 17.3692 7.02722 15.8112 6.69427C15.0314 6.52763 14.4348 6.49054 14.0104 6.50188C13.7984 6.50754 13.6304 6.52526 13.505 6.54455C13.4423 6.55419 13.3905 6.5642 13.3492 6.57324C13.3286 6.57776 13.3107 6.58203 13.2954 6.58589C13.2878 6.58782 13.2808 6.58964 13.2745 6.59134C13.2713 6.59219 13.2683 6.59301 13.2655 6.59379C13.2641 6.59419 13.2627 6.59457 13.2614 6.59495C13.2607 6.59513 13.2598 6.59541 13.2594 6.5955C13.2585 6.59577 13.2575 6.59604 13.5325 7.5575C13.8075 8.51895 13.8065 8.51922 13.8056 8.51948C13.8053 8.51956 13.8044 8.51982 13.8038 8.51998C13.8027 8.52031 13.8015 8.52063 13.8004 8.52093C13.7983 8.52154 13.7962 8.52209 13.7944 8.52259C13.7906 8.5236 13.7875 8.52441 13.785 8.52504C13.78 8.5263 13.7775 8.52684 13.7776 8.52682C13.7778 8.52679 13.7882 8.52451 13.8091 8.52129C13.8508 8.51487 13.9351 8.5046 14.0638 8.50116C14.3206 8.4943 14.7589 8.51456 15.3932 8.6501C16.6633 8.92152 18.7238 9.65639 21.6801 11.5651L22.7649 9.88489ZM12.6194 7.14972C12.0007 8.53519 11.6627 10.0296 11.6251 11.5464L13.6245 11.596C13.6556 10.3434 13.9346 9.10936 14.4456 7.96527L12.6194 7.14972ZM11.6251 11.5464C11.5875 13.0633 11.851 14.5726 12.4003 15.987L14.2647 15.263C13.811 14.095 13.5935 12.8486 13.6245 11.596L11.6251 11.5464ZM12.6244 14.9188C11.4714 16.075 10.5577 17.4473 9.93575 18.9572L11.785 19.7189C12.3067 18.4523 13.0732 17.3011 14.0406 16.3312L12.6244 14.9188ZM9.93575 18.9572C9.31381 20.467 8.99582 22.0847 9 23.7176L11 23.7124C10.9965 22.3426 11.2632 20.9855 11.785 19.7189L9.93575 18.9572ZM9 23.715C9 29.7208 10.7627 33.584 13.6067 36.0278C16.4039 38.4315 20.0894 39.3191 23.6312 39.7429L23.8688 37.7571C20.4331 37.3459 17.2436 36.516 14.9102 34.5109C12.6236 32.546 11 29.3092 11 23.715H9ZM23.0441 38.0417C21.3062 39.7737 20.8377 41.826 21.0027 44.0732L22.9973 43.9268C22.8623 42.089 23.2388 40.6713 24.4559 39.4583L23.0441 38.0417ZM21 44V58H23V44H21ZM39 58V52H37V58H39ZM39 52V43.75H37V52H39Z" fill="#C0B283"/>
</svg>
