<svg width="46" height="46" viewBox="0 0 46 46" fill="none" xmlns="http://www.w3.org/2000/svg">
<path d="M22.9971 0C10.2983 0 0 10.5583 0 23.5829C0 34.0003 6.5895 42.838 15.732 45.9591C16.882 46.1764 17.3018 45.4482 17.3018 44.8228C17.3018 44.262 17.2816 42.7793 17.2701 40.8121C10.8733 42.2361 9.522 37.6499 9.522 37.6499C8.47838 34.9252 6.969 34.1999 6.969 34.1999C4.87888 32.7377 7.12425 32.7671 7.12425 32.7671C9.43287 32.9345 10.6461 35.1982 10.6461 35.1982C12.6989 38.8008 16.031 37.7615 17.342 37.1566C17.549 35.6328 18.1441 34.5934 18.8025 34.0032C13.6965 33.4072 8.326 31.3842 8.326 22.3498C8.326 19.7748 9.223 17.6696 10.695 16.0195C10.4564 15.4234 9.66862 13.0246 10.9193 9.78022C10.9193 9.78022 12.8513 9.14602 17.2443 12.1966C19.0785 11.674 21.045 11.4127 23.0029 11.4039C24.955 11.4156 26.9244 11.674 28.7615 12.1996C33.1516 9.14895 35.0807 9.78316 35.0807 9.78316C36.3342 13.0305 35.5465 15.4264 35.3107 16.0224C36.7856 17.6725 37.674 19.7777 37.674 22.3527C37.674 31.4106 32.2977 33.4042 27.1745 33.9885C27.9996 34.7167 28.7356 36.1554 28.7356 38.3545C28.7356 41.5079 28.7069 44.0506 28.7069 44.8228C28.7069 45.4541 29.1209 46.1881 30.2881 45.9562C39.4162 42.8321 46 33.9973 46 23.5829C46 10.5583 35.7018 0 22.9971 0Z" fill="#DCD0C0"/>
</svg>
