<svg width="46" height="46" viewBox="0 0 46 46" fill="none" xmlns="http://www.w3.org/2000/svg">
<path d="M33.7333 10.7334H36.8M13.8 1.53345H32.2C38.9747 1.53345 44.4667 7.02542 44.4667 13.8001V32.2001C44.4667 38.9748 38.9747 44.4668 32.2 44.4668H13.8C7.02531 44.4668 1.53334 38.9748 1.53334 32.2001V13.8001C1.53334 7.02542 7.02531 1.53345 13.8 1.53345ZM23 32.2001C17.919 32.2001 13.8 28.0811 13.8 23.0001C13.8 17.9191 17.919 13.8001 23 13.8001C28.081 13.8001 32.2 17.9191 32.2 23.0001C32.2 28.0811 28.081 32.2001 23 32.2001Z" stroke="#DCD0C0" stroke-width="2"/>
</svg>
