<svg width="60" height="60" viewBox="0 0 60 60" fill="none" xmlns="http://www.w3.org/2000/svg">
<path d="M50 32.001V31.3343C50 28.3888 47.6122 26.001 44.6667 26.001H40C36.6863 26.001 34 28.6873 34 32.001C34 35.3147 36.6863 38.001 40 38.001H44C47.3137 38.001 50 40.6872 50 44.001C50 47.3147 47.3137 50.001 44 50.001H40C36.6863 50.001 34 47.3147 34 44.001M26 24.001V44.001C26 47.3147 23.3138 50.001 20.0001 50.001C16.6863 50.001 14.0001 47.3147 14.0001 44.001M2.00006 2.00098H58V58.0009H2.00006V2.00098Z" stroke="#C0B283" stroke-width="2"/>
</svg>
