<svg width="46" height="46" viewBox="0 0 46 46" fill="none" xmlns="http://www.w3.org/2000/svg">
<path d="M5.57845 0C2.20538 0 0 2.31726 0 5.36297C0 8.34142 2.13968 10.7248 5.44902 10.7248H5.51304C8.95209 10.7248 11.0923 8.34142 11.0923 5.36297C11.028 2.31726 8.95209 0 5.57845 0Z" fill="#DCD0C0"/>
<path d="M0.582855 14.9624H10.4438V46H0.582855V14.9624Z" fill="#DCD0C0"/>
<path d="M34.6477 14.2339C29.3281 14.2339 25.761 19.4635 25.761 19.4635V14.9623H15.8998V45.9999H25.7605V28.6673C25.7605 27.7394 25.8247 26.813 26.0853 26.1494C26.7981 24.2966 28.4204 22.377 31.1446 22.377C34.7128 22.377 36.1399 25.2233 36.1399 29.3958V45.9999H46V28.2035C46 18.6701 41.135 14.2339 34.6477 14.2339Z" fill="#DCD0C0"/>
</svg>
