<svg width="60" height="60" viewBox="0 0 60 60" fill="none" xmlns="http://www.w3.org/2000/svg">
<path d="M2.00006 57.9995L1.29295 57.2924C1.00696 57.5784 0.921401 58.0085 1.07618 58.3822C1.23096 58.7559 1.5956 58.9995 2.00006 58.9995V57.9995ZM4.62558 55.374L3.91848 54.6669L3.91848 54.6669L4.62558 55.374ZM58.0001 57.9995V58.9995C58.4045 58.9995 58.7692 58.7559 58.9239 58.3822C59.0787 58.0085 58.9932 57.5784 58.7072 57.2924L58.0001 57.9995ZM14.0001 41.9995L13.5528 41.1051C13.2653 41.2488 13.0645 41.522 13.013 41.8393C12.9615 42.1566 13.0657 42.4793 13.293 42.7066L14.0001 41.9995ZM17.4781 40.2605L17.9253 41.1549L17.4781 40.2605ZM42.522 40.2605L42.0748 41.1549L42.522 40.2605ZM46.0001 41.9995L46.7072 42.7066C46.9345 42.4793 47.0386 42.1566 46.9871 41.8393C46.9357 41.522 46.7348 41.2488 46.4473 41.1051L46.0001 41.9995ZM16.3432 44.3427L17.0503 43.6355L16.3432 44.3427ZM2.70717 58.7066L5.33269 56.0811L3.91848 54.6669L1.29295 57.2924L2.70717 58.7066ZM7.00006 52.0557V25.9995H5.00006V52.0557H7.00006ZM53.0001 25.9995V52.0557H55.0001V25.9995H53.0001ZM54.6674 56.0811L57.293 58.7066L58.7072 57.2924L56.0816 54.6669L54.6674 56.0811ZM58.0001 56.9995H2.00006V58.9995H58.0001V56.9995ZM53.0001 52.0557C53.0001 53.5655 53.5998 55.0135 54.6674 56.0811L56.0816 54.6669C55.3891 53.9743 55.0001 53.0351 55.0001 52.0557H53.0001ZM30.0001 2.99951C42.7026 2.99951 53.0001 13.297 53.0001 25.9995H55.0001C55.0001 12.1924 43.8072 0.999512 30.0001 0.999512V2.99951ZM7.00006 25.9995C7.00006 13.297 17.2975 2.99951 30.0001 2.99951V0.999512C16.1929 0.999512 5.00006 12.1924 5.00006 25.9995H7.00006ZM5.33269 56.0811C6.40029 55.0135 7.00006 53.5655 7.00006 52.0557H5.00006C5.00006 53.0351 4.611 53.9743 3.91848 54.6669L5.33269 56.0811ZM14.4473 42.8939L17.9253 41.1549L17.0309 39.3661L13.5528 41.1051L14.4473 42.8939ZM42.0748 41.1549L45.5528 42.8939L46.4473 41.1051L42.9693 39.3661L42.0748 41.1549ZM45.293 41.2924L42.9498 43.6355L44.364 45.0498L46.7072 42.7066L45.293 41.2924ZM17.0503 43.6355L14.7072 41.2924L13.293 42.7066L15.6361 45.0498L17.0503 43.6355ZM30.0001 48.9995C25.143 48.9995 20.4848 47.07 17.0503 43.6355L15.6361 45.0498C19.4457 48.8593 24.6125 50.9995 30.0001 50.9995V48.9995ZM42.9498 43.6355C39.5153 47.07 34.8572 48.9995 30.0001 48.9995V50.9995C35.3876 50.9995 40.5545 48.8593 44.364 45.0498L42.9498 43.6355ZM17.9253 41.1549C25.5265 37.3543 34.4736 37.3543 42.0748 41.1549L42.9693 39.3661C34.805 35.2839 25.1952 35.2839 17.0309 39.3661L17.9253 41.1549ZM29.0001 25.9995V29.9995H31.0001V25.9995H29.0001ZM15.0001 29.9995V25.9995H13.0001V29.9995H15.0001ZM22.0001 36.9995C18.1341 36.9995 15.0001 33.8655 15.0001 29.9995H13.0001C13.0001 34.9701 17.0295 38.9995 22.0001 38.9995V36.9995ZM29.0001 29.9995C29.0001 33.8655 25.8661 36.9995 22.0001 36.9995V38.9995C26.9706 38.9995 31.0001 34.9701 31.0001 29.9995H29.0001ZM22.0001 18.9995C25.8661 18.9995 29.0001 22.1335 29.0001 25.9995H31.0001C31.0001 21.0289 26.9706 16.9995 22.0001 16.9995V18.9995ZM22.0001 16.9995C17.0295 16.9995 13.0001 21.0289 13.0001 25.9995H15.0001C15.0001 22.1335 18.1341 18.9995 22.0001 18.9995V16.9995ZM45.0001 25.9995V29.9995H47.0001V25.9995H45.0001ZM38.0001 36.9995C34.1341 36.9995 31.0001 33.8655 31.0001 29.9995H29.0001C29.0001 34.9701 33.0295 38.9995 38.0001 38.9995V36.9995ZM45.0001 29.9995C45.0001 33.8655 41.8661 36.9995 38.0001 36.9995V38.9995C42.9706 38.9995 47.0001 34.9701 47.0001 29.9995H45.0001ZM38.0001 18.9995C41.8661 18.9995 45.0001 22.1335 45.0001 25.9995H47.0001C47.0001 21.0289 42.9706 16.9995 38.0001 16.9995V18.9995ZM38.0001 16.9995C33.0295 16.9995 29.0001 21.0289 29.0001 25.9995H31.0001C31.0001 22.1335 34.1341 18.9995 38.0001 18.9995V16.9995ZM21.0001 27.9995V31.9995H23.0001V27.9995H21.0001ZM37.0001 27.9995V31.9995H39.0001V27.9995H37.0001Z" fill="#C0B283"/>
</svg>
