<svg width="56" height="33" viewBox="0 0 56 33" fill="none" xmlns="http://www.w3.org/2000/svg">
<path d="M0.112 16.6C0.112 13.5787 0.772 10.88 2.092 8.504C3.412 6.09866 5.216 4.236 7.504 2.916C9.792 1.56667 12.344 0.891999 15.16 0.891999C18.592 0.891999 21.5253 1.71333 23.96 3.356C26.424 4.96933 28.2133 7.25733 29.328 10.22H25.72C24.84 8.13733 23.4907 6.50933 21.672 5.336C19.8827 4.16267 17.712 3.576 15.16 3.576C12.9013 3.576 10.8627 4.104 9.044 5.16C7.25467 6.216 5.84667 7.74133 4.82 9.736C3.79333 11.7013 3.28 13.9893 3.28 16.6C3.28 19.2107 3.79333 21.4987 4.82 23.464C5.84667 25.4293 7.25467 26.94 9.044 27.996C10.8627 29.052 12.9013 29.58 15.16 29.58C17.712 29.58 19.8827 29.008 21.672 27.864C23.4907 26.6907 24.84 25.0773 25.72 23.024H29.328C28.2133 25.9573 26.424 28.2307 23.96 29.844C21.496 31.4573 18.5627 32.264 15.16 32.264C12.344 32.264 9.792 31.604 7.504 30.284C5.216 28.9347 3.412 27.072 2.092 24.696C0.772 22.32 0.112 19.6213 0.112 16.6ZM51.8333 32L44.2213 19.152H38.5453V32H35.4653V1.244H44.7053C48.1373 1.244 50.7333 2.06533 52.4933 3.708C54.2826 5.35067 55.1773 7.50667 55.1773 10.176C55.1773 12.4053 54.532 14.312 53.2413 15.896C51.98 17.4507 50.1026 18.4627 47.6093 18.932L55.5293 32H51.8333ZM38.5453 16.644H44.7493C47.1546 16.644 48.9586 16.0573 50.1613 14.884C51.3933 13.7107 52.0093 12.1413 52.0093 10.176C52.0093 8.152 51.4226 6.59733 50.2493 5.512C49.076 4.39733 47.228 3.84 44.7053 3.84H38.5453V16.644Z" fill="#F4F4F4"/>
</svg>
