<svg width="60" height="60" viewBox="0 0 60 60" fill="none" xmlns="http://www.w3.org/2000/svg">
<path d="M46 23.999V23.3324C46 20.3868 43.6122 17.999 40.6667 17.999H36C32.6863 17.999 30 20.6853 30 23.999C30 27.3127 32.6863 29.999 36 29.999H40C43.3137 29.999 46 32.6853 46 35.999C46 39.3127 43.3137 41.999 40 41.999H36C32.6863 41.999 30 39.3127 30 35.999M22 15.999V37.0548C22 40.0849 20.288 42.855 17.5777 44.2102L14 45.999M6.00002 41.999V17.999L30 3.99902L54 17.999V41.999L30 55.999L6.00002 41.999Z" stroke="#C0B283" stroke-width="2"/>
</svg>
