<svg width="60" height="60" viewBox="0 0 60 60" fill="none" xmlns="http://www.w3.org/2000/svg">
<path d="M57.9999 30.3355C57.9999 36.9629 45.4638 42.3355 29.9999 42.3355C14.5359 42.3355 1.99989 36.9629 1.99989 30.3355C1.99989 23.7081 14.5359 18.3355 29.9999 18.3355C45.4638 18.3355 57.9999 23.7081 57.9999 30.3355Z" stroke="#C0B283" stroke-width="2"/>
<path d="M16.6634 54.9556C22.4908 58.1122 33.1857 49.6483 40.551 36.0511C47.9164 22.4538 49.1631 8.8721 43.3357 5.71552C37.5083 2.55894 26.8135 11.0228 19.4481 24.6201C12.0828 38.2174 10.836 51.799 16.6634 54.9556Z" stroke="#C0B283" stroke-width="2"/>
<path d="M43.3358 54.9556C37.5084 58.1122 26.8136 49.6483 19.4482 36.0511C12.0829 22.4538 10.8361 8.8721 16.6635 5.71552C22.4909 2.55894 33.1858 11.0228 40.5511 24.6201C47.9165 38.2174 49.1632 51.799 43.3358 54.9556Z" stroke="#C0B283" stroke-width="2"/>
<path d="M25.9999 30.3355C25.9999 32.5446 27.7907 34.3355 29.9999 34.3355C32.209 34.3355 33.9999 32.5446 33.9999 30.3355C33.9999 28.1263 32.209 26.3355 29.9999 26.3355C27.7907 26.3355 25.9999 28.1263 25.9999 30.3355Z" stroke="#C0B283" stroke-width="2"/>
</svg>
