<svg width="64" height="64" viewBox="0 0 64 64" fill="none" xmlns="http://www.w3.org/2000/svg">
<path d="M17.6412 44.0455C19.457 42.7314 20.6451 40.6008 20.6451 38.1936C20.6451 34.2101 17.4038 30.9678 13.4193 30.9678C9.43482 30.9678 6.19353 34.2101 6.19353 38.1936C6.19353 40.6008 7.38166 42.7314 9.1974 44.0455C3.8627 45.8199 0 50.8511 0 56.7742V64H26.8386V56.7742C26.8386 50.8511 22.9759 45.8199 17.6412 44.0455ZM8.25804 38.1936C8.25804 35.3477 10.5734 33.0323 13.4193 33.0323C16.2653 33.0323 18.5806 35.3477 18.5806 38.1936C18.5806 41.0396 16.2653 43.3549 13.4193 43.3549C10.5734 43.3549 8.25804 41.0396 8.25804 38.1936ZM9.80643 56.7742H8.25804V52.6452H14.4516V61.9355H13.0704C13.2934 61.4658 13.4193 60.9404 13.4193 60.3871C13.4193 58.3949 11.7987 56.7742 9.80643 56.7742ZM24.7741 61.9355H20.6451V52.6452H18.5806V61.9355H16.5161V50.5807H6.19353V56.7742H4.12902V58.8387H9.80643C10.6601 58.8387 11.3548 59.5334 11.3548 60.3871C11.3548 61.2408 10.6601 61.9355 9.80643 61.9355H2.06451V56.7742C2.06451 50.5136 7.15869 45.4194 13.4193 45.4194C19.68 45.4194 24.7741 50.5136 24.7741 56.7742V61.9355Z" fill="#F4F4F4"/>
<path d="M54.8024 44.0455C56.6182 42.7314 57.8063 40.6008 57.8063 38.1936C57.8063 34.2101 54.565 30.9678 50.5805 30.9678C46.596 30.9678 43.3547 34.2101 43.3547 38.1936C43.3547 40.6008 44.5429 42.7314 46.3586 44.0455C41.0239 45.8199 37.1612 50.8511 37.1612 56.7742V64H63.9998V56.7742C63.9998 50.8511 60.1371 45.8199 54.8024 44.0455ZM45.4192 38.1936C45.4192 35.3477 47.7346 33.0323 50.5805 33.0323C53.4264 33.0323 55.7418 35.3477 55.7418 38.1936C55.7418 41.0396 53.4264 43.3549 50.5805 43.3549C47.7346 43.3549 45.4192 41.0396 45.4192 38.1936ZM46.9676 56.7742H45.4192V52.6452H51.6128V61.9355H50.2316C50.4546 61.4658 50.5805 60.9404 50.5805 60.3871C50.5805 58.3949 48.9599 56.7742 46.9676 56.7742ZM61.9353 61.9355H57.8063V52.6452H55.7418V61.9355H53.6773V50.5807H43.3547V56.7742H41.2902V58.8387H46.9676C47.8213 58.8387 48.516 59.5334 48.516 60.3871C48.516 61.2408 47.8213 61.9355 46.9676 61.9355H39.2257V56.7742C39.2257 50.5136 44.3199 45.4194 50.5805 45.4194C56.8411 45.4194 61.9353 50.5136 61.9353 56.7742V61.9355Z" fill="#F4F4F4"/>
<path d="M25.7692 18.5415C26.4392 19.0484 26.8386 19.8938 26.8386 20.8032V21.6775C26.8386 24.5234 29.154 26.8388 31.9999 26.8388C34.8459 26.8388 37.1612 24.5234 37.1612 21.6775V20.8806C37.1612 19.9299 37.6051 19.036 38.3793 18.4269C40.8856 16.4553 42.3225 13.5021 42.3225 10.3227C42.3225 7.50569 41.2087 4.8755 39.1875 2.91318C37.1664 0.952929 34.5155 -0.0751976 31.682 0.00428604C26.146 0.171511 21.6578 4.81666 21.6774 10.3599C21.6887 13.597 23.1803 16.5792 25.7692 18.5415ZM35.0967 21.6775C35.0967 23.3849 33.7073 24.7743 31.9999 24.7743C30.2926 24.7743 28.9032 23.3849 28.9032 21.6775V20.8032C28.9032 20.7495 28.8959 20.6979 28.8939 20.6453H35.1101C35.107 20.7237 35.0967 20.8011 35.0967 20.8806V21.6775ZM31.9999 12.3872C30.8613 12.3872 29.9354 11.4613 29.9354 10.3227C29.9354 9.18413 30.8613 8.2582 31.9999 8.2582C33.1385 8.2582 34.0644 9.18413 34.0644 10.3227C34.0644 11.4613 33.1385 12.3872 31.9999 12.3872ZM31.7439 2.0688C31.8296 2.0657 31.9153 2.06467 32.001 2.06467C34.1615 2.06467 36.194 2.88634 37.7496 4.3955C39.3671 5.96453 40.258 8.0693 40.258 10.3227C40.258 12.8652 39.108 15.227 37.1034 16.8032C36.4789 17.2946 35.9875 17.9026 35.6459 18.5808H33.0322V14.3052C34.8077 13.8437 36.1289 12.2417 36.1289 10.3227C36.1289 8.04556 34.2771 6.19369 31.9999 6.19369C29.7228 6.19369 27.8709 8.04556 27.8709 10.3227C27.8709 12.2417 29.1922 13.8437 30.9677 14.3052V18.5808H28.3901C28.066 17.9191 27.5994 17.3379 27.0152 16.8961C24.9434 15.3261 23.7501 12.9405 23.7419 10.3516C23.7264 5.91705 27.3156 2.20196 31.7439 2.0688Z" fill="#F4F4F4"/>
<path d="M52.9258 22.2515C52.134 22.813 51.6127 23.7317 51.6127 24.7743C51.6127 26.4816 53.0022 27.8711 54.7095 27.8711C56.4169 27.8711 57.8063 26.4816 57.8063 24.7743C57.8063 23.1361 56.5242 21.8055 54.9129 21.6982C53.7227 17.2564 51.302 13.2894 47.8399 10.1854L46.4618 11.7235C49.6288 14.5622 51.8409 18.1895 52.9258 22.2515ZM55.7418 24.7743C55.7418 25.3441 55.2783 25.8066 54.7095 25.8066C54.1407 25.8066 53.6773 25.3441 53.6773 24.7743C53.6773 24.2045 54.1407 23.742 54.7095 23.742C55.2783 23.742 55.7418 24.2045 55.7418 24.7743Z" fill="#F4F4F4"/>
<path d="M46.5681 9.12324C46.0355 8.70931 45.477 8.31189 44.9062 7.94028L43.7821 9.6724C44.3034 10.011 44.8143 10.3743 45.2995 10.7521L46.5681 9.12324Z" fill="#F4F4F4"/>
<path d="M9.29034 27.8711C10.9977 27.8711 12.3871 26.4816 12.3871 24.7743C12.3871 23.7317 11.8658 22.813 11.0741 22.2515C12.159 18.1895 14.3701 14.5622 17.537 11.7235L16.159 10.1854C12.6968 13.2894 10.2772 17.2564 9.08595 21.6982C7.47563 21.8055 6.19357 23.1361 6.19357 24.7743C6.19357 26.4816 7.58299 27.8711 9.29034 27.8711ZM9.29034 23.742C9.85911 23.742 10.3226 24.2045 10.3226 24.7743C10.3226 25.3441 9.85911 25.8066 9.29034 25.8066C8.72157 25.8066 8.25808 25.3441 8.25808 24.7743C8.25808 24.2045 8.72157 23.742 9.29034 23.742Z" fill="#F4F4F4"/>
<path d="M20.2167 9.6724L19.0926 7.94028C18.5217 8.31086 17.9633 8.70828 17.4306 9.12324L18.6993 10.7521C19.1855 10.3743 19.6964 10.011 20.2167 9.6724Z" fill="#F4F4F4"/>
<path d="M39.2257 37.1614C40.933 37.1614 42.3224 35.772 42.3224 34.0646C42.3224 32.3573 40.933 30.9678 39.2257 30.9678C37.8817 30.9678 36.7462 31.8339 36.3188 33.0323H27.6799C27.2525 31.8339 26.1171 30.9678 24.7731 30.9678C23.0657 30.9678 21.6763 32.3573 21.6763 34.0646C21.6763 35.772 23.0657 37.1614 24.7731 37.1614C26.1171 37.1614 27.2525 36.2953 27.6799 35.0969H36.3188C36.7462 36.2953 37.8817 37.1614 39.2257 37.1614ZM39.2257 33.0323C39.7944 33.0323 40.2579 33.4948 40.2579 34.0646C40.2579 34.6344 39.7944 35.0969 39.2257 35.0969C38.6569 35.0969 38.1934 34.6344 38.1934 34.0646C38.1934 33.4948 38.6569 33.0323 39.2257 33.0323ZM24.7741 35.0969C24.2053 35.0969 23.7418 34.6344 23.7418 34.0646C23.7418 33.4948 24.2053 33.0323 24.7741 33.0323C25.3429 33.0323 25.8064 33.4948 25.8064 34.0646C25.8064 34.6344 25.3429 35.0969 24.7741 35.0969Z" fill="#F4F4F4"/>
</svg>
