<svg width="46" height="46" viewBox="0 0 46 46" fill="none" xmlns="http://www.w3.org/2000/svg">
<path d="M41.3385 13.8001C43.8687 11.3756 44.7269 9.52472 44.4004 4.6001C42.9215 6.24405 40.9635 7.28713 38.9959 7.58513C37.3382 5.75176 34.9426 4.6001 32.2785 4.6001C27.1359 4.6001 22.9669 8.7755 22.9669 13.9261L22.9669 16.8668C11.9439 16.8668 6.12626 8.68899 4.59529 4.6001C-1.52858 16.8668 3.06432 27.6001 16.843 32.2001C14.8018 34.2445 8.882 38.3334 1.53336 38.3334C6.12626 41.4001 10.9384 41.4001 15.8861 41.4001C29.9431 41.4001 41.3385 29.9871 41.3385 15.9084V13.8001Z" fill="#DCD0C0"/>
</svg>
