<svg width="60" height="60" viewBox="0 0 60 60" fill="none" xmlns="http://www.w3.org/2000/svg">
<path d="M22 54L21.0422 54.2873C21.1687 54.7091 21.5562 54.9984 21.9965 55C22.4368 55.0015 22.8263 54.7149 22.9558 54.2941L22 54ZM38 54L37.0422 54.2873C37.1644 54.6946 37.5307 54.9801 37.9555 54.999C38.3803 55.0179 38.7706 54.7662 38.9285 54.3714L38 54ZM52.123 18.6925L53.0515 19.0639L52.123 18.6925ZM49.9568 10.9676L49.3568 11.7676L49.3568 11.7676L49.9568 10.9676ZM49.4286 10.5714L50.0286 9.77143L50.0286 9.77143L49.4286 10.5714ZM41.4286 18.5714L42.2286 17.9714V17.9714L41.4286 18.5714ZM42.5714 10.5714L41.9714 9.77143V9.77143L42.5714 10.5714ZM30 57C15.0883 57 3 44.9117 3 30H1C1 46.0163 13.9837 59 30 59V57ZM57 30C57 44.9117 44.9117 57 30 57V59C46.0163 59 59 46.0163 59 30H57ZM30 3C44.9117 3 57 15.0883 57 30H59C59 13.9837 46.0163 1 30 1V3ZM30 1C13.9837 1 1 13.9837 1 30H3C3 15.0883 15.0883 3 30 3V1ZM9.04217 14.2873L21.0422 54.2873L22.9578 53.7127L10.9578 13.7127L9.04217 14.2873ZM22.9558 54.2941L30.9558 28.2941L29.0442 27.7059L21.0442 53.7059L22.9558 54.2941ZM25.0422 14.2873L37.0422 54.2873L38.9578 53.7127L26.9578 13.7127L25.0422 14.2873ZM50.5568 10.1676L50.0286 9.77143L48.8286 11.3714L49.3568 11.7676L50.5568 10.1676ZM40.6286 19.1714L43.2 22.6L44.8 21.4L42.2286 17.9714L40.6286 19.1714ZM41.9714 9.77143C39.0049 11.9963 38.4037 16.2049 40.6286 19.1714L42.2286 17.9714C40.6664 15.8885 41.0885 12.9336 43.1714 11.3714L41.9714 9.77143ZM50.0286 9.77143C47.6413 7.98095 44.3587 7.98095 41.9714 9.77143L43.1714 11.3714C44.8476 10.1143 47.1524 10.1143 48.8286 11.3714L50.0286 9.77143ZM53.0515 19.0639C54.3268 15.8755 53.304 12.228 50.5568 10.1676L49.3568 11.7676C51.3805 13.2854 52.134 15.9724 51.1945 18.3211L53.0515 19.0639ZM8 15H16V13H8V15ZM20 15H32V13H20V15ZM38.9285 54.3714L53.0515 19.0639L51.1945 18.3211L37.0715 53.6286L38.9285 54.3714Z" fill="#C0B283"/>
</svg>
